<svg fill="#909090" t="1651805347172" class="icon" viewBox="0 0 1024 1024" version="1.1" xmlns="http://www.w3.org/2000/svg" p-id="6515" data-darkreader-inline-fill="" width="200" height="200">
<path d="M512 1024C229.68 1024 0 794.32 0 512S229.68 0 512 0s512 229.68 512 512-229.68 512-512 512z m0-950.42C270.26 73.58 73.58 270.26 73.58 512S270.26 950.42 512 950.42 950.42 753.74 950.42 512 753.74 73.58 512 73.58z" p-id="6516"></path><path d="M512 1024c-43.34 0-104.94-28.42-152.32-163.82C326.92 766.62 308.9 642.96 308.9 512s18-254.62 50.78-348.18C407.06 28.42 468.66 0 512 0s104.94 28.42 152.32 163.82C697.08 257.38 715.1 381.04 715.1 512s-18 254.62-50.78 348.18C616.94 995.58 555.34 1024 512 1024z m0-950.42c-19.74 0-53.28 30-82.88 114.54-30 86-46.64 200.98-46.64 323.88s16.56 238 46.64 323.88c29.6 84.54 63.14 114.54 82.88 114.54s53.28-30 82.88-114.54c30-86 46.64-200.98 46.64-323.88s-16.56-238-46.64-323.88C565.28 103.58 531.74 73.58 512 73.58z" p-id="6517"></path>
<path d="M48.78 317h926.44v73.58H48.78z m0 298.86h926.44v73.58H48.78z" p-id="6518"></path>
</svg>